<svg width="16" height="16" viewBox="0 0 16 16" fill="none" xmlns="http://www.w3.org/2000/svg">
<rect width="16" height="16" fill="#E57FF5"/>
<path d="M3.66016 11V5.3125H5.26562C5.76042 5.3125 6.19792 5.42188 6.57812 5.64062C6.95833 5.85938 7.2513 6.17057 7.45703 6.57422C7.66536 6.97786 7.77083 7.44141 7.77344 7.96484V8.32812C7.77344 8.86458 7.66927 9.33464 7.46094 9.73828C7.25521 10.1419 6.95964 10.4518 6.57422 10.668C6.19141 10.8841 5.74479 10.9948 5.23438 11H3.66016ZM4.41016 5.92969V10.3867H5.19922C5.77734 10.3867 6.22656 10.207 6.54688 9.84766C6.86979 9.48828 7.03125 8.97656 7.03125 8.3125V7.98047C7.03125 7.33464 6.87891 6.83333 6.57422 6.47656C6.27214 6.11719 5.84245 5.9349 5.28516 5.92969H4.41016ZM12.4492 11H8.72266V10.4805L10.6914 8.29297C10.9831 7.96224 11.1836 7.69401 11.293 7.48828C11.4049 7.27995 11.4609 7.0651 11.4609 6.84375C11.4609 6.54688 11.3711 6.30339 11.1914 6.11328C11.0117 5.92318 10.7721 5.82812 10.4727 5.82812C10.1133 5.82812 9.83333 5.93099 9.63281 6.13672C9.4349 6.33984 9.33594 6.6237 9.33594 6.98828H8.61328C8.61328 6.46484 8.78125 6.04167 9.11719 5.71875C9.45573 5.39583 9.90755 5.23438 10.4727 5.23438C11.0013 5.23438 11.4193 5.3737 11.7266 5.65234C12.0339 5.92839 12.1875 6.29688 12.1875 6.75781C12.1875 7.31771 11.8307 7.98438 11.1172 8.75781L9.59375 10.4102H12.4492V11Z" fill="#922CA3"/>
<path d="M3.66016 11H3.41016V11.25H3.66016V11ZM3.66016 5.3125V5.0625H3.41016V5.3125H3.66016ZM7.45703 6.57422L7.23429 6.68774L7.23488 6.68888L7.45703 6.57422ZM7.77344 7.96484L8.02344 7.96484L8.02343 7.9636L7.77344 7.96484ZM7.46094 9.73828L7.23878 9.62362L7.2382 9.62476L7.46094 9.73828ZM6.57422 10.668L6.45193 10.4499L6.4513 10.4503L6.57422 10.668ZM5.23438 11L5.23438 11.25L5.23693 11.25L5.23438 11ZM4.41016 5.92969V5.67969H4.16016V5.92969H4.41016ZM4.41016 10.3867H4.16016V10.6367H4.41016V10.3867ZM6.54688 9.84766L6.36092 9.68056L6.36025 9.68131L6.54688 9.84766ZM6.57422 6.47656L6.38284 6.63743L6.38411 6.63892L6.57422 6.47656ZM5.28516 5.92969L5.28749 5.67969H5.28516V5.92969ZM3.91016 11V5.3125H3.41016V11H3.91016ZM3.66016 5.5625H5.26562V5.0625H3.66016V5.5625ZM5.26562 5.5625C5.72237 5.5625 6.11583 5.66307 6.45345 5.85732L6.7028 5.42393C6.28 5.18068 5.79846 5.0625 5.26562 5.0625V5.5625ZM6.45345 5.85732C6.79023 6.05108 7.0498 6.32576 7.23429 6.68774L7.67977 6.46069C7.4528 6.01538 7.12644 5.66767 6.7028 5.42393L6.45345 5.85732ZM7.23488 6.68888C7.42253 7.05245 7.521 7.47609 7.52344 7.96609L8.02343 7.9636C8.02066 7.40672 7.9082 6.90328 7.67919 6.45956L7.23488 6.68888ZM7.52344 7.96484V8.32812H8.02344V7.96484H7.52344ZM7.52344 8.32812C7.52344 8.83189 7.42578 9.26131 7.23878 9.62362L7.68309 9.85294C7.91276 9.40796 8.02344 8.89728 8.02344 8.32812H7.52344ZM7.2382 9.62476C7.05429 9.98558 6.79314 10.2586 6.45193 10.4499L6.6965 10.886C7.12613 10.6451 7.45612 10.2983 7.68368 9.85181L7.2382 9.62476ZM6.4513 10.4503C6.11078 10.6425 5.70688 10.7452 5.23182 10.75L5.23693 11.25C5.7827 11.2444 6.27203 11.1257 6.69714 10.8857L6.4513 10.4503ZM5.23438 10.75H3.66016V11.25H5.23438V10.75ZM4.16016 5.92969V10.3867H4.66016V5.92969H4.16016ZM4.41016 10.6367H5.19922V10.1367H4.41016V10.6367ZM5.19922 10.6367C5.83302 10.6367 6.35627 10.4372 6.7335 10.014L6.36025 9.68131C6.09685 9.97683 5.72167 10.1367 5.19922 10.1367V10.6367ZM6.73283 10.0147C7.11024 9.59473 7.28125 9.01502 7.28125 8.3125H6.78125C6.78125 8.93811 6.62934 9.38184 6.36092 9.68056L6.73283 10.0147ZM7.28125 8.3125V7.98047H6.78125V8.3125H7.28125ZM7.28125 7.98047C7.28125 7.29748 7.12007 6.73076 6.76433 6.31421L6.38411 6.63892C6.63775 6.93591 6.78125 7.37179 6.78125 7.98047H7.28125ZM6.76559 6.3157C6.40764 5.88986 5.90274 5.68545 5.28749 5.6797L5.28282 6.17968C5.78216 6.18434 6.13663 6.34451 6.38285 6.63743L6.76559 6.3157ZM5.28516 5.67969H4.41016V6.17969H5.28516V5.67969ZM12.4492 11V11.25H12.6992V11H12.4492ZM8.72266 11H8.47266V11.25H8.72266V11ZM8.72266 10.4805L8.53683 10.3132L8.47266 10.3845V10.4805H8.72266ZM10.6914 8.29297L10.8772 8.46022L10.8789 8.45833L10.6914 8.29297ZM11.293 7.48828L11.0728 7.36992L11.0722 7.37092L11.293 7.48828ZM9.63281 6.13672L9.45378 5.96222L9.45376 5.96225L9.63281 6.13672ZM9.33594 6.98828V7.23828H9.58594V6.98828H9.33594ZM8.61328 6.98828H8.36328V7.23828H8.61328V6.98828ZM9.11719 5.71875L8.94463 5.53785L8.94394 5.53851L9.11719 5.71875ZM11.7266 5.65234L11.5586 5.83754L11.5595 5.83832L11.7266 5.65234ZM11.1172 8.75781L10.9334 8.58829L10.9334 8.58835L11.1172 8.75781ZM9.59375 10.4102L9.40995 10.2407L9.02321 10.6602H9.59375V10.4102ZM12.4492 10.4102H12.6992V10.1602H12.4492V10.4102ZM12.4492 10.75H8.72266V11.25H12.4492V10.75ZM8.97266 11V10.4805H8.47266V11H8.97266ZM8.90848 10.6477L10.8772 8.46021L10.5056 8.12573L8.53683 10.3132L8.90848 10.6477ZM10.8789 8.45833C11.1742 8.12348 11.3903 7.8377 11.5137 7.60564L11.0722 7.37092C10.9768 7.55032 10.7919 7.801 10.5039 8.12761L10.8789 8.45833ZM11.5132 7.60664C11.6433 7.36449 11.7109 7.10923 11.7109 6.84375H11.2109C11.2109 7.02098 11.1666 7.19541 11.0728 7.36992L11.5132 7.60664ZM11.7109 6.84375C11.7109 6.49231 11.6026 6.18442 11.3731 5.94155L11.0097 6.28501C11.1395 6.42235 11.2109 6.60144 11.2109 6.84375H11.7109ZM11.3731 5.94155C11.1392 5.69407 10.83 5.57812 10.4727 5.57812V6.07812C10.7143 6.07812 10.8843 6.15228 11.0097 6.28501L11.3731 5.94155ZM10.4727 5.57812C10.0638 5.57812 9.71256 5.69673 9.45378 5.96222L9.81184 6.31121C9.95411 6.16525 10.1628 6.07812 10.4727 6.07812V5.57812ZM9.45376 5.96225C9.19841 6.22432 9.08594 6.57791 9.08594 6.98828H9.58594C9.58594 6.66948 9.67139 6.45537 9.81187 6.31118L9.45376 5.96225ZM9.33594 6.73828H8.61328V7.23828H9.33594V6.73828ZM8.86328 6.98828C8.86328 6.52364 9.00981 6.16874 9.29044 5.89899L8.94394 5.53851C8.55269 5.9146 8.36328 6.40604 8.36328 6.98828H8.86328ZM9.28974 5.89965C9.57245 5.62999 9.95765 5.48438 10.4727 5.48438V4.98438C9.85746 4.98438 9.339 5.16168 8.94463 5.53785L9.28974 5.89965ZM10.4727 5.48438C10.9568 5.48438 11.3089 5.61109 11.5586 5.83754L11.8945 5.46715C11.5296 5.13631 11.0458 4.98438 10.4727 4.98438V5.48438ZM11.5595 5.83832C11.8076 6.06116 11.9375 6.35867 11.9375 6.75781H12.4375C12.4375 6.23508 12.2602 5.79561 11.8936 5.46636L11.5595 5.83832ZM11.9375 6.75781C11.9375 7.21892 11.6375 7.82511 10.9334 8.58829L11.3009 8.92733C12.0239 8.14364 12.4375 7.4165 12.4375 6.75781H11.9375ZM10.9334 8.58835L9.40995 10.2407L9.77755 10.5796L11.301 8.92727L10.9334 8.58835ZM9.59375 10.6602H12.4492V10.1602H9.59375V10.6602ZM12.1992 10.4102V11H12.6992V10.4102H12.1992Z" fill="#BCA75E"/>
</svg>
